<?xml version="1.0" encoding="UTF-8"?><svg id="Laag_1" xmlns="http://www.w3.org/2000/svg" xmlns:xlink="http://www.w3.org/1999/xlink" viewBox="0 0 284.7 211.1"><defs><style>.cls-1{clip-path:url(#clippath-1);}.cls-2{fill:#ca4d2b;}.cls-3{fill:#003449;}.cls-4{clip-path:url(#clippath);}.cls-5{fill:none;}</style><clipPath id="clippath"><rect class="cls-5" width="211.1" height="211.1"/></clipPath><clipPath id="clippath-1"><rect class="cls-5" x="102.5" y="95.4" width="182.2" height="27.3"/></clipPath></defs><g class="cls-4"><path class="cls-3" d="M137.3,160.1c-45.5,0-82.3-37-82.3-82.6S69.2,24.2,90.9,9.4C39.9,14.4,0,57.5,0,110s45.1,101.1,100.8,101.1,88.4-33.9,98.4-79.1c-15.1,17.3-37.2,28.2-61.9,28.2"/><path class="cls-3" d="M163.6,20.4s-10.7,.3-9.9,11.4c.3,3.8,4.4,8.4,9.3,8.7,4.1,.3,9-2.4,10.4-7.5,0,0-10.1-1.3-9.8-12.6"/><path class="cls-3" d="M125.2,15.1c-3.6-2.2-5.9-8.9-.4-12.8,0,0-11.3,.2-10.5,11.2,.3,3.8,4.4,8.4,9.3,8.7,4.1,.3,9-2.8,10.4-7.8,0,0-4.1,3.6-8.8,.7"/><path class="cls-3" d="M200.2,66.4c0,5.5-4.5,10-10,10s-10-4.5-10-10,4.5-10,10-10,10,4.5,10,10"/></g><g class="cls-1"><path class="cls-2" d="M271.9,99.4c4,0,8.6,2.9,8.6,9.6s-3.1,9.7-8.6,9.7-8.5-4.2-8.5-9.7,4-9.5,8.5-9.5m8.3,.3c-1.2-1.6-3.9-4.3-8.8-4.3s-12.6,4.6-12.6,13.5,6,13.7,12.6,13.7,7.3-2.4,8.8-4.4v3.6h4.5v-25.9h-4.5v3.7Zm-49,22.2h4.5v-13.5c0-1.9,.1-4.9,1.9-7,1.3-1.6,3-2,4.5-2s3.4,.7,4.2,1.9c1.1,1.4,1.2,3.2,1.2,4.7v15.9h4.5v-16c0-2.9-.2-5-1.5-6.9-1.6-2.3-4.4-3.6-7.4-3.6s-6.6,2.6-7.4,3.6v-3h-4.5v25.9Zm-24.5-25.9h-4.5v15.6c0,3.2,.3,5.5,2.4,7.8,2.3,2.4,5.3,3.2,7.9,3.2s5.6-.8,7.9-3.2c2.1-2.2,2.4-4.6,2.4-7.8v-15.6h-4.5v15.1c0,1.8,0,3.9-1.2,5.5-.7,.9-2.1,2-4.5,2s-3.9-1.1-4.5-2c-1.2-1.6-1.2-3.7-1.2-5.5v-15.1Zm-11.5,1.9c-1.2-.9-3.9-2.5-8-2.5-8,0-13.8,5.8-13.8,13.7s5.8,13.5,13.8,13.5,5.4-.6,8.2-2.7v-5.4c-2.4,2.9-5.7,4.1-8.3,4.1-4.6,0-9.1-3.3-9.1-9.6s4.4-9.7,9.1-9.7,5.7,.9,8.1,3.9v-5.4Zm-46.8,8.2c.7-3.9,3.8-6.7,7.6-6.7s6.8,2.7,7.6,6.7h-15.2Zm15.9,7.1c-.6,1.2-1.5,2.6-2.7,3.6-1.5,1.2-3.2,1.9-5.3,1.9-4.5,0-8.1-3.4-8.2-8.8h20.1c.1-3.4-.8-7.4-2.4-9.7-1.6-2.2-4.7-4.7-9.8-4.7-7.8,0-12.5,6-12.5,13.7s6.5,13.5,12.7,13.5,6.2-1.1,8.6-3.2c1.3-1.2,2.4-2.7,3.2-4.2l-3.7-2.1Zm-61.7,8.7h4.5v-14.1c0-3.1,.6-8.4,5.7-8.4s4.7,5.4,4.7,7.2v15.3h4.5v-14.4c0-3.1,.6-8.1,5.7-8.1s4.6,3.9,4.6,6.8v15.7h4.5v-16.4c0-3.7-.7-10.1-8.4-10.1s-5.3,.2-7.8,4.2c-.5-.9-2.4-4.2-7-4.2s-5,1.2-6.4,3.4v-2.7h-4.5v25.9Z"/></g></svg>